<?xml version="1.0" encoding="utf-8"?>
<!-- Generator: Adobe Illustrator 24.3.0, SVG Export Plug-In . SVG Version: 6.00 Build 0)  -->
<svg version="1.1" id="var_2" xmlns="http://www.w3.org/2000/svg" xmlns:xlink="http://www.w3.org/1999/xlink" x="0px" y="0px"
	 viewBox="0 0 880 291" style="enable-background:new 0 0 880 291;" xml:space="preserve">
<style type="text/css">
	.st0{enable-background:new    ;}
	.st1{fill:none;stroke:#000000;stroke-width:10;}
</style>
<g class="st0">
	<path d="M177.9,44.1h8v33.4h40.6V44.1h8v79.7h-8V85.3h-40.6v38.5h-8V44.1z"/>
	<path d="M280.5,63.3c9.1,0,16.6,3.3,22.6,9.9c5.4,6,8.1,13.1,8.1,21.3s-2.9,15.4-8.6,21.6c-5.7,6.2-13.1,9.2-22.1,9.2
		s-16.4-3.1-22.2-9.2c-5.7-6.2-8.6-13.4-8.6-21.6s2.7-15.2,8.1-21.2C263.9,66.6,271.4,63.3,280.5,63.3z M280.5,70.7
		c-6.3,0-11.7,2.3-16.3,7c-4.5,4.7-6.8,10.3-6.8,16.9c0,4.3,1,8.2,3.1,11.9c2.1,3.7,4.9,6.5,8.4,8.5s7.4,3,11.6,3s8.1-1,11.6-3
		s6.3-4.9,8.4-8.5c2.1-3.7,3.1-7.7,3.1-11.9c0-6.6-2.3-12.2-6.8-16.9C292.2,73.1,286.8,70.7,280.5,70.7z"/>
	<path d="M355,71.3l-4.9,5c-4.1-3.9-8-5.9-11.9-5.9c-2.5,0-4.6,0.8-6.3,2.4c-1.8,1.6-2.6,3.5-2.6,5.7c0,1.9,0.7,3.7,2.2,5.5
		c1.4,1.8,4.5,3.8,9.1,6.2c5.6,2.9,9.5,5.7,11.5,8.5c2,2.7,3,5.8,3,9.3c0,4.8-1.7,8.9-5.1,12.3c-3.4,3.4-7.7,5-12.8,5
		c-3.4,0-6.7-0.7-9.7-2.2c-3.1-1.5-5.7-3.5-7.7-6.1l4.8-5.4c3.9,4.4,8,6.6,12.3,6.6c3,0,5.6-1,7.8-2.9c2.1-2,3.2-4.2,3.2-6.9
		c0-2.2-0.7-4.1-2.1-5.8c-1.4-1.7-4.6-3.8-9.6-6.3c-5.3-2.7-8.9-5.5-10.9-8.1s-2.9-5.7-2.9-9.2c0-4.5,1.5-8.2,4.6-11.2
		s6.9-4.4,11.6-4.4C344,63.3,349.5,66,355,71.3z"/>
	<path d="M368.5,64.8h7.6v10.8c3-4.1,6.4-7.2,10.3-9.3c3.9-2.1,8.2-3.1,13-3.1c8.4,0,15.5,3,21.5,9.1c6,6,8.9,13.3,8.9,21.8
		c0,8.7-3,16-8.9,22.1s-13,9.1-21.4,9.1c-4.7,0-9-1-12.9-2.9c-3.9-2-7.5-4.9-10.7-8.7v31.7h-7.6V64.8H368.5z M398.9,70.6
		c-6.6,0-12.1,2.3-16.6,6.9s-6.7,10.3-6.7,17.1c0,4.5,1,8.5,3,12.1s4.9,6.4,8.6,8.5s7.7,3.1,11.8,3.1c4.1,0,7.9-1.1,11.5-3.2
		s6.4-5.1,8.6-8.9c2.1-3.8,3.2-7.8,3.2-11.9c0-4.2-1.1-8.2-3.2-11.9c-2.1-3.8-4.9-6.7-8.5-8.7C407,71.7,403.1,70.6,398.9,70.6z"/>
	<path d="M443.1,64.8h7.6v27.5c0,6.7,0.4,11.3,1.1,13.9c1.1,3.6,3.2,6.5,6.2,8.6c3.1,2.1,6.7,3.1,10.9,3.1c4.2,0,7.8-1,10.8-3.1
		c2.9-2,5-4.7,6.1-8c0.8-2.3,1.1-7.1,1.1-14.5V64.8h7.8v29c0,8.1-0.9,14.3-2.8,18.4s-4.8,7.3-8.6,9.7c-3.8,2.3-8.6,3.5-14.3,3.5
		s-10.5-1.2-14.4-3.5c-3.8-2.3-6.7-5.6-8.6-9.8c-1.9-4.2-2.8-10.5-2.8-18.8V64.8H443.1z M467.4,32.1c3.2,0,5.9,1.1,8.2,3.4
		c2.3,2.3,3.4,5,3.4,8.2c0,3.2-1.1,5.9-3.4,8.2c-2.2,2.3-5,3.4-8.2,3.4s-5.9-1.1-8.2-3.4c-2.3-2.3-3.4-5-3.4-8.2
		c0-3.2,1.1-6,3.4-8.2C461.5,33.3,464.2,32.1,467.4,32.1z M467.3,37.7c-1.7,0-3.1,0.6-4.2,1.8c-1.2,1.2-1.7,2.6-1.7,4.2
		s0.6,3,1.7,4.2c1.1,1.2,2.6,1.8,4.2,1.8s3-0.6,4.2-1.8c1.2-1.2,1.7-2.6,1.7-4.2c0-1.6-0.6-3-1.7-4.2
		C470.3,38.3,468.9,37.7,467.3,37.7z"/>
	<path d="M570.5,42.1v81.7H563v-10.1c-3.2,3.9-6.7,6.8-10.7,8.7c-4,2-8.3,2.9-13,2.9c-8.3,0-15.5-3-21.4-9.1
		c-5.9-6.1-8.9-13.4-8.9-22.1c0-8.5,3-15.8,8.9-21.8c6-6,13.1-9.1,21.5-9.1c4.8,0,9.2,1,13.1,3.1c3.9,2.1,7.4,5.1,10.3,9.3V42.1
		H570.5z M540.1,70.6c-4.2,0-8.1,1-11.7,3.1s-6.4,5-8.5,8.7s-3.2,7.7-3.2,11.9c0,4.2,1.1,8.1,3.2,11.9c2.1,3.8,5,6.7,8.6,8.9
		c3.6,2.1,7.4,3.2,11.6,3.2s8.1-1,11.8-3.1c3.7-2.1,6.6-4.9,8.6-8.5s3-7.6,3-12.1c0-6.8-2.2-12.5-6.7-17.1
		C552.2,72.9,546.7,70.6,540.1,70.6z"/>
	<path d="M587.6,42.1h7.6v46.6l27.3-23.9h11.1l-32.4,28.1l34.3,30.8h-10.6l-29.7-26.5v26.6h-7.6V42.1z"/>
	<path d="M702.1,64.8v59h-7.5v-10.1c-3.2,3.9-6.7,6.8-10.7,8.7c-4,2-8.3,2.9-13,2.9c-8.3,0-15.5-3-21.4-9.1s-8.9-13.4-8.9-22.1
		c0-8.5,3-15.8,8.9-21.8c6-6,13.1-9.1,21.5-9.1c4.8,0,9.2,1,13.1,3.1s7.4,5.1,10.3,9.3V64.8H702.1z M671.8,70.6
		c-4.2,0-8.1,1-11.7,3.1c-3.6,2.1-6.4,5-8.5,8.7s-3.2,7.7-3.2,11.9c0,4.2,1.1,8.1,3.2,11.9s5,6.7,8.6,8.9c3.6,2.1,7.4,3.2,11.6,3.2
		c4.2,0,8.1-1,11.8-3.1c3.7-2.1,6.6-4.9,8.6-8.5s3-7.6,3-12.1c0-6.8-2.2-12.5-6.7-17.1C683.9,72.9,678.3,70.6,671.8,70.6z"/>
</g>
<g class="st0">
	<path d="M241.8,177.3h8v48.1c0,5.7,0.1,9.3,0.3,10.7c0.4,3.1,1.3,5.8,2.8,7.9c1.4,2.1,3.7,3.9,6.7,5.3c3,1.4,6,2.1,9.1,2.1
		c2.6,0,5.2-0.6,7.6-1.7s4.4-2.7,6.1-4.7c1.6-2,2.8-4.4,3.6-7.2c0.5-2,0.8-6.2,0.8-12.5v-48.1h8v48.1c0,7.1-0.7,12.9-2.1,17.3
		c-1.4,4.4-4.2,8.2-8.3,11.5c-4.2,3.3-9.2,4.9-15.1,4.9c-6.4,0-11.9-1.5-16.5-4.6c-4.6-3.1-7.7-7.1-9.2-12.2
		c-1-3.1-1.5-8.7-1.5-16.8v-48.1L241.8,177.3L241.8,177.3z"/>
	<path d="M341.3,257l11.4-79.7h1.3l32.4,65.4l32.1-65.4h1.3l11.5,79.7h-7.8l-7.9-57l-28.2,57h-2l-28.5-57.5l-7.8,57.5H341.3z"/>
	<path d="M504.4,198v59h-7.5v-10.1c-3.2,3.9-6.7,6.8-10.7,8.7c-4,2-8.3,2.9-13,2.9c-8.3,0-15.5-3-21.4-9.1s-8.9-13.4-8.9-22.1
		c0-8.5,3-15.8,8.9-21.8c6-6,13.1-9.1,21.5-9.1c4.8,0,9.2,1,13.1,3.1s7.4,5.1,10.3,9.3V198H504.4z M474.1,203.8
		c-4.2,0-8.1,1-11.7,3.1s-6.4,5-8.5,8.7s-3.2,7.7-3.2,11.9s1.1,8.1,3.2,11.9c2.1,3.8,5,6.7,8.6,8.9c3.6,2.1,7.4,3.2,11.6,3.2
		s8.1-1,11.8-3.1c3.7-2.1,6.6-4.9,8.6-8.5s3-7.6,3-12.1c0-6.8-2.2-12.5-6.7-17.1C486.2,206.1,480.7,203.8,474.1,203.8z"/>
	<path d="M518.6,198h7.8v8.6c2.3-3.4,4.8-5.9,7.3-7.6c2.6-1.7,5.2-2.5,8-2.5c2.1,0,4.3,0.7,6.7,2l-4,6.4c-1.6-0.7-2.9-1-4-1
		c-2.5,0-5,1-7.3,3.1c-2.3,2.1-4.1,5.3-5.4,9.7c-0.9,3.4-1.4,10.2-1.4,20.4v19.9h-7.8L518.6,198L518.6,198L518.6,198z"/>
	<path d="M554.8,175.3h7.6v46.5l27.3-23.8h11.2l-32.4,28.1l34.3,30.8h-10.7l-29.7-26.5v26.5h-7.6L554.8,175.3L554.8,175.3z"/>
	<path d="M669.4,198v59h-7.5v-10.1c-3.2,3.9-6.7,6.8-10.7,8.7c-4,2-8.3,2.9-13,2.9c-8.3,0-15.5-3-21.4-9.1s-8.9-13.4-8.9-22.1
		c0-8.5,3-15.8,8.9-21.8c6-6,13.1-9.1,21.5-9.1c4.8,0,9.2,1,13.1,3.1c3.9,2.1,7.4,5.1,10.3,9.3V198H669.4z M639,203.8
		c-4.2,0-8.1,1-11.7,3.1c-3.6,2.1-6.4,5-8.5,8.7s-3.2,7.7-3.2,11.9s1.1,8.1,3.2,11.9c2.1,3.8,5,6.7,8.6,8.9
		c3.6,2.1,7.4,3.2,11.6,3.2c4.2,0,8.1-1,11.8-3.1c3.7-2.1,6.6-4.9,8.6-8.5s3-7.6,3-12.1c0-6.8-2.2-12.5-6.7-17.1
		C651.1,206.1,645.6,203.8,639,203.8z"/>
</g>
<rect class="st1" width="880" height="291"/>
</svg>
